<svg id="visual" viewBox="0 0 900 600" width="900" height="600" xmlns="http://www.w3.org/2000/svg" xmlns:xlink="http://www.w3.org/1999/xlink" version="1.1"><rect x="0" y="0" width="900" height="600" fill="#001220"></rect><defs><linearGradient id="grad1_0" x1="33.3%" y1="0%" x2="100%" y2="100%"><stop offset="20%" stop-color="#fbae3c" stop-opacity="1"></stop><stop offset="80%" stop-color="#fbae3c" stop-opacity="1"></stop></linearGradient></defs><defs><linearGradient id="grad1_1" x1="33.3%" y1="0%" x2="100%" y2="100%"><stop offset="20%" stop-color="#fbae3c" stop-opacity="1"></stop><stop offset="80%" stop-color="#f48350" stop-opacity="1"></stop></linearGradient></defs><defs><linearGradient id="grad1_2" x1="33.3%" y1="0%" x2="100%" y2="100%"><stop offset="20%" stop-color="#d96162" stop-opacity="1"></stop><stop offset="80%" stop-color="#f48350" stop-opacity="1"></stop></linearGradient></defs><defs><linearGradient id="grad1_3" x1="33.3%" y1="0%" x2="100%" y2="100%"><stop offset="20%" stop-color="#d96162" stop-opacity="1"></stop><stop offset="80%" stop-color="#af4b6d" stop-opacity="1"></stop></linearGradient></defs><defs><linearGradient id="grad1_4" x1="33.3%" y1="0%" x2="100%" y2="100%"><stop offset="20%" stop-color="#7c3e6b" stop-opacity="1"></stop><stop offset="80%" stop-color="#af4b6d" stop-opacity="1"></stop></linearGradient></defs><defs><linearGradient id="grad1_5" x1="33.3%" y1="0%" x2="100%" y2="100%"><stop offset="20%" stop-color="#7c3e6b" stop-opacity="1"></stop><stop offset="80%" stop-color="#49335c" stop-opacity="1"></stop></linearGradient></defs><defs><linearGradient id="grad1_6" x1="33.3%" y1="0%" x2="100%" y2="100%"><stop offset="20%" stop-color="#1d2540" stop-opacity="1"></stop><stop offset="80%" stop-color="#49335c" stop-opacity="1"></stop></linearGradient></defs><defs><linearGradient id="grad1_7" x1="33.3%" y1="0%" x2="100%" y2="100%"><stop offset="20%" stop-color="#1d2540" stop-opacity="1"></stop><stop offset="80%" stop-color="#001220" stop-opacity="1"></stop></linearGradient></defs><defs><linearGradient id="grad2_0" x1="0%" y1="0%" x2="66.7%" y2="100%"><stop offset="20%" stop-color="#fbae3c" stop-opacity="1"></stop><stop offset="80%" stop-color="#fbae3c" stop-opacity="1"></stop></linearGradient></defs><defs><linearGradient id="grad2_1" x1="0%" y1="0%" x2="66.7%" y2="100%"><stop offset="20%" stop-color="#f48350" stop-opacity="1"></stop><stop offset="80%" stop-color="#fbae3c" stop-opacity="1"></stop></linearGradient></defs><defs><linearGradient id="grad2_2" x1="0%" y1="0%" x2="66.7%" y2="100%"><stop offset="20%" stop-color="#f48350" stop-opacity="1"></stop><stop offset="80%" stop-color="#d96162" stop-opacity="1"></stop></linearGradient></defs><defs><linearGradient id="grad2_3" x1="0%" y1="0%" x2="66.7%" y2="100%"><stop offset="20%" stop-color="#af4b6d" stop-opacity="1"></stop><stop offset="80%" stop-color="#d96162" stop-opacity="1"></stop></linearGradient></defs><defs><linearGradient id="grad2_4" x1="0%" y1="0%" x2="66.7%" y2="100%"><stop offset="20%" stop-color="#af4b6d" stop-opacity="1"></stop><stop offset="80%" stop-color="#7c3e6b" stop-opacity="1"></stop></linearGradient></defs><defs><linearGradient id="grad2_5" x1="0%" y1="0%" x2="66.7%" y2="100%"><stop offset="20%" stop-color="#49335c" stop-opacity="1"></stop><stop offset="80%" stop-color="#7c3e6b" stop-opacity="1"></stop></linearGradient></defs><defs><linearGradient id="grad2_6" x1="0%" y1="0%" x2="66.7%" y2="100%"><stop offset="20%" stop-color="#49335c" stop-opacity="1"></stop><stop offset="80%" stop-color="#1d2540" stop-opacity="1"></stop></linearGradient></defs><defs><linearGradient id="grad2_7" x1="0%" y1="0%" x2="66.7%" y2="100%"><stop offset="20%" stop-color="#001220" stop-opacity="1"></stop><stop offset="80%" stop-color="#1d2540" stop-opacity="1"></stop></linearGradient></defs><g transform="translate(900, 0)"><path d="M0 459.7C-31.3 459.8 -62.5 459.8 -88.8 446.3C-115 432.7 -136.2 405.6 -162.3 391.7C-188.3 377.9 -219.2 377.3 -245 366.7C-270.8 356 -291.6 335.3 -316.8 316.8C-341.9 298.3 -371.4 282 -382.2 255.4C-393 228.8 -385.2 191.9 -393.6 163C-402 134.2 -426.6 113.4 -440.4 87.6C-454.1 61.8 -456.9 30.9 -459.7 0L0 0Z" fill="#0c1c30"></path><path d="M0 402.2C-27.4 402.3 -54.7 402.3 -77.7 390.5C-100.6 378.6 -119.2 354.9 -142 342.8C-164.8 330.6 -191.8 330.2 -214.4 320.8C-237 311.5 -255.2 293.4 -277.2 277.2C-299.2 261 -325 246.8 -334.5 223.5C-343.9 200.2 -337 167.9 -344.4 142.6C-351.7 117.4 -373.3 99.2 -385.3 76.6C-397.3 54.1 -399.8 27 -402.2 0L0 0Z" fill="#312c4f"></path><path d="M0 344.8C-23.4 344.8 -46.9 344.9 -66.6 334.7C-86.3 324.5 -102.2 304.2 -121.7 293.8C-141.2 283.4 -164.4 283 -183.8 275C-203.1 267 -218.7 251.5 -237.6 237.6C-256.4 223.7 -278.6 211.5 -286.7 191.5C-294.8 171.6 -288.9 143.9 -295.2 122.3C-301.5 100.6 -320 85.1 -330.3 65.7C-340.6 46.3 -342.7 23.2 -344.8 0L0 0Z" fill="#623965"></path><path d="M0 287.3C-19.5 287.3 -39.1 287.4 -55.5 278.9C-71.9 270.4 -85.1 253.5 -101.4 244.8C-117.7 236.2 -137 235.8 -153.1 229.2C-169.3 222.5 -182.3 209.6 -198 198C-213.7 186.4 -232.1 176.3 -238.9 159.6C-245.7 143 -240.7 119.9 -246 101.9C-251.2 83.9 -266.6 70.9 -275.2 54.7C-283.8 38.6 -285.6 19.3 -287.3 0L0 0Z" fill="#96446e"></path><path d="M0 229.9C-15.6 229.9 -31.3 229.9 -44.4 223.1C-57.5 216.4 -68.1 202.8 -81.1 195.9C-94.1 188.9 -109.6 188.7 -122.5 183.3C-135.4 178 -145.8 167.6 -158.4 158.4C-171 149.1 -185.7 141 -191.1 127.7C-196.5 114.4 -192.6 95.9 -196.8 81.5C-201 67.1 -213.3 56.7 -220.2 43.8C-227.1 30.9 -228.5 15.4 -229.9 0L0 0Z" fill="#c55469"></path><path d="M0 172.4C-11.7 172.4 -23.4 172.4 -33.3 167.3C-43.1 162.3 -51.1 152.1 -60.8 146.9C-70.6 141.7 -82.2 141.5 -91.9 137.5C-101.6 133.5 -109.4 125.7 -118.8 118.8C-128.2 111.9 -139.3 105.8 -143.3 95.8C-147.4 85.8 -144.4 72 -147.6 61.1C-150.7 50.3 -160 42.5 -165.1 32.8C-170.3 23.2 -171.3 11.6 -172.4 0L0 0Z" fill="#e9705a"></path><path d="M0 114.9C-7.8 114.9 -15.6 115 -22.2 111.6C-28.8 108.2 -34.1 101.4 -40.6 97.9C-47.1 94.5 -54.8 94.3 -61.3 91.7C-67.7 89 -72.9 83.8 -79.2 79.2C-85.5 74.6 -92.9 70.5 -95.6 63.8C-98.3 57.2 -96.3 48 -98.4 40.8C-100.5 33.5 -106.7 28.4 -110.1 21.9C-113.5 15.4 -114.2 7.7 -114.9 0L0 0Z" fill="#fa9845"></path><path d="M0 57.5C-3.9 57.5 -7.8 57.5 -11.1 55.8C-14.4 54.1 -17 50.7 -20.3 49C-23.5 47.2 -27.4 47.2 -30.6 45.8C-33.9 44.5 -36.5 41.9 -39.6 39.6C-42.7 37.3 -46.4 35.3 -47.8 31.9C-49.1 28.6 -48.1 24 -49.2 20.4C-50.2 16.8 -53.3 14.2 -55 10.9C-56.8 7.7 -57.1 3.9 -57.5 0L0 0Z" fill="#fbae3c"></path></g><g transform="translate(0, 600)"><path d="M0 -459.7C27.9 -448.2 55.8 -436.7 86.2 -433.5C116.7 -430.3 149.6 -435.4 175.9 -424.7C202.2 -414 221.8 -387.5 247.2 -370C272.7 -352.5 304 -343.9 322.4 -322.4C340.9 -301 346.6 -266.6 356.7 -238.3C366.8 -210.1 381.4 -187.8 395.4 -163.8C409.4 -139.7 422.9 -113.8 433.5 -86.2C444.1 -58.6 451.9 -29.3 459.7 0L0 0Z" fill="#0c1c30"></path><path d="M0 -402.2C24.4 -392.2 48.8 -382.1 75.5 -379.3C102.1 -376.5 130.9 -381 153.9 -371.6C176.9 -362.3 194.1 -339.1 216.3 -323.8C238.6 -308.4 266 -300.9 282.1 -282.1C298.3 -263.4 303.3 -233.3 312.1 -208.5C321 -183.8 333.7 -164.4 346 -143.3C358.3 -122.3 370 -99.6 379.3 -75.5C388.6 -51.3 395.4 -25.6 402.2 0L0 0Z" fill="#312c4f"></path><path d="M0 -344.8C20.9 -336.2 41.8 -327.5 64.7 -325.1C87.5 -322.7 112.2 -326.6 131.9 -318.5C151.7 -310.5 166.3 -290.7 185.4 -277.5C204.5 -264.4 228 -257.9 241.8 -241.8C255.7 -225.7 259.9 -200 267.5 -178.8C275.1 -157.5 286.1 -140.9 296.6 -122.8C307.1 -104.8 317.2 -85.4 325.1 -64.7C333.1 -44 338.9 -22 344.8 0L0 0Z" fill="#623965"></path><path d="M0 -287.3C17.4 -280.1 34.9 -272.9 53.9 -270.9C72.9 -268.9 93.5 -272.1 110 -265.4C126.4 -258.8 138.6 -242.2 154.5 -231.3C170.4 -220.3 190 -214.9 201.5 -201.5C213.1 -188.1 216.6 -166.6 222.9 -149C229.3 -131.3 238.4 -117.4 247.1 -102.4C255.9 -87.3 264.3 -71.1 270.9 -53.9C277.6 -36.6 282.4 -18.3 287.3 0L0 0Z" fill="#96446e"></path><path d="M0 -229.9C13.9 -224.1 27.9 -218.4 43.1 -216.8C58.3 -215.2 74.8 -217.7 88 -212.4C101.1 -207 110.9 -193.8 123.6 -185C136.3 -176.2 152 -172 161.2 -161.2C170.5 -150.5 173.3 -133.3 178.4 -119.2C183.4 -105 190.7 -93.9 197.7 -81.9C204.7 -69.9 211.4 -56.9 216.8 -43.1C222.1 -29.3 226 -14.7 229.9 0L0 0Z" fill="#c55469"></path><path d="M0 -172.4C10.5 -168.1 20.9 -163.8 32.3 -162.6C43.7 -161.4 56.1 -163.3 66 -159.3C75.8 -155.3 83.2 -145.3 92.7 -138.8C102.3 -132.2 114 -129 120.9 -120.9C127.8 -112.9 130 -100 133.8 -89.4C137.6 -78.8 143 -70.4 148.3 -61.4C153.5 -52.4 158.6 -42.7 162.6 -32.3C166.5 -22 169.5 -11 172.4 0L0 0Z" fill="#e9705a"></path><path d="M0 -114.9C7 -112.1 13.9 -109.2 21.6 -108.4C29.2 -107.6 37.4 -108.9 44 -106.2C50.6 -103.5 55.4 -96.9 61.8 -92.5C68.2 -88.1 76 -86 80.6 -80.6C85.2 -75.2 86.6 -66.7 89.2 -59.6C91.7 -52.5 95.4 -47 98.9 -40.9C102.4 -34.9 105.7 -28.5 108.4 -21.6C111 -14.7 113 -7.3 114.9 0L0 0Z" fill="#fa9845"></path><path d="M0 -57.5C3.5 -56 7 -54.6 10.8 -54.2C14.6 -53.8 18.7 -54.4 22 -53.1C25.3 -51.8 27.7 -48.4 30.9 -46.3C34.1 -44.1 38 -43 40.3 -40.3C42.6 -37.6 43.3 -33.3 44.6 -29.8C45.9 -26.3 47.7 -23.5 49.4 -20.5C51.2 -17.5 52.9 -14.2 54.2 -10.8C55.5 -7.3 56.5 -3.7 57.5 0L0 0Z" fill="#fbae3c"></path></g></svg>